<svg width="30" height="12" viewBox="0 0 30 12" fill="none" xmlns="http://www.w3.org/2000/svg">
<path d="M26 5H25C24.6138 5 24.3025 4.23282 24 4L19 1C18.4475 0.576437 17.7063 0 17 0H8C6.95252 0 6.58125 0.163617 6 1L5 3C4.68125 3.4572 3.57252 4 3 4C1.27752 4 0 5.34642 0 7V9C0 10.6536 1.27752 12 3 12C3.345 12 4 11.3312 4 11C4 10.6688 3.345 11 3 11C1.96623 11 1 9.99242 1 9V7C1 6.00758 1.96623 5 3 5C3.99252 5 5.44875 4.79324 6 4L7 2C7.34875 1.49842 7.37252 1 8 1H17C17.425 1 17.6675 1.74558 18 2L23 5C23.5212 5.40202 24.33 6 25 6H26C27.8337 6 29 7.794 29 9C29 10.182 27.9325 11 27 11C26.655 11 26 10.6688 26 11C26 11.3312 26.655 12 27 12C28.7812 12.0001 30 10.71 30 9C30 6.96358 28.4363 5 26 5Z" fill="black"/>
</svg>
