<svg width="30" height="30" viewBox="0 0 30 30" fill="none" xmlns="http://www.w3.org/2000/svg">
<g clip-path="url(#clip0)">
<path d="M22 30C21.8708 30 22.1095 30.0835 22 30C21.6886 29.7656 14 24.4876 14 20C14 17.5037 15.536 15 18 15C19.4031 15 21.1668 15.9127 22 17C22.832 15.9127 24.5957 15 26 15C28.464 15 30 17.5037 30 20C30 24.4889 22.3114 29.7643 22 30C22.1292 30 21.8905 30.0823 22 30ZM18 16C16.2154 16 15 18.192 15 20C15 23.0287 19.8129 27.2656 22 29C24.1858 27.2643 29 23.025 29 20C29 18.192 27.7846 16 26 16C24.7089 16 23.512 16.8055 23 18C22.8055 18.4551 21.1945 18.4551 21 18C20.4868 16.8055 19.2911 16 18 16Z" fill="black"/>
<path d="M12 25H6.00003C4.63937 25 4.00003 23.3696 4.00003 22V14H1.00003C0.307981 14 2.97949e-05 12.6966 2.97949e-05 12C2.97949e-05 11.6511 -0.251624 12.2272 2.97949e-05 12L13 -7.7486e-07C13.2369 -0.221031 13.7644 -0.221031 14 -7.7486e-07L17 4V2C17 1.65728 17.6596 0.999999 18 0.999999H22C22.3405 0.999999 22 1.65728 22 2V8L26 12C26.2492 12.2334 26.2319 11.7479 26 12C25.7681 12.2508 25.2505 12.2359 25 12L21 9C20.8754 8.88452 21 9.1726 21 9V2H19V5C19 5.24711 18.2245 5.9019 18 6C17.7743 6.0981 18.1789 6.16763 18 6L13 0.999999L1.00003 12H4.00003C4.3405 12 5.00003 12.6573 5.00003 13V22C5.00003 22.6854 5.32032 24 6.00003 24H12C12.3405 24 12 23.6573 12 24C12 24.3427 12.3405 25 12 25Z" fill="black"/>
</g>
<defs>
<clipPath id="clip0">
<rect width="30" height="30" fill="white"/>
</clipPath>
</defs>
</svg>
