<svg width="30" height="30" viewBox="0 0 30 30" fill="none" xmlns="http://www.w3.org/2000/svg">
<path d="M6 16C4.34641 16 3 17.3464 3 19C3 20.6536 4.34641 22 6 22C7.65359 22 9 20.6536 9 19C9 17.3464 7.65359 16 6 16ZM6 21C5.00758 21 4 19.9924 4 19C4 18.0076 5.00758 17 6 17C6.99242 17 8 18.0076 8 19C8 19.9924 6.99242 21 6 21Z" fill="black"/>
<path d="M24 16C22.3464 16 21 17.3464 21 19C21 20.6536 22.3464 22 24 22C25.6536 22 27 20.6536 27 19C27 17.3464 25.6536 16 24 16ZM24 21C23.0076 21 22 19.9924 22 19C22 18.0076 23.0076 17 24 17C24.9924 17 26 18.0076 26 19C26 19.9924 24.9924 21 24 21Z" fill="black"/>
<path d="M26 13H25C24.6138 13 24.3025 12.2328 24 12L19 9C18.4475 8.57644 17.7063 8 17 8H8C6.95252 8 6.58125 8.16362 6 9L5 11C4.68125 11.4572 3.57252 12 3 12C1.27752 12 0 13.3464 0 15V17C0 18.6536 1.27752 20 3 20C3.345 20 4 19.3312 4 19C4 18.6688 3.345 19 3 19C1.96623 19 1 17.9924 1 17V15C1 14.0076 1.96623 13 3 13C3.99252 13 5.44875 12.7932 6 12L7 10C7.34875 9.49842 7.37252 9 8 9H17C17.425 9 17.6675 9.74558 18 10L23 13C23.5212 13.402 24.33 14 25 14H26C27.8337 14 29 15.794 29 17C29 18.182 27.9325 19 27 19C26.655 19 26 18.6688 26 19C26 19.3312 26.655 20 27 20C28.7812 20.0001 30 18.71 30 17C30 14.9636 28.4363 13 26 13Z" fill="black"/>
<path d="M22 19H9C8.655 19 8 18.7542 8 19C8 19.2458 8.655 20 9 20H22C22.345 20 23 19.2458 23 19C23 18.7542 22.345 19 22 19Z" fill="black"/>
<path d="M21 13H15V11C15 10.632 15.368 10 15 10C14.632 10 14 10.632 14 11V13C14 13.368 14.632 14 15 14H21C21.368 14 22 13.368 22 13C22 12.632 21.368 13 21 13Z" fill="black"/>
<path d="M11 13H8.00001V11C8.14576 10.692 8.29273 10.1546 8.00001 9.99999C7.70611 9.84663 7.14698 9.69075 7.00001 9.99999L6.00001 13C5.90758 13.192 5.89219 13.8167 6.00001 14C6.10782 14.1833 6.79499 14 7.00001 14H11C11.3271 14 12 13.3441 12 13C12 12.6559 11.3271 13 11 13Z" fill="black"/>
<path d="M17 15H16C15.586 15 15 14.7542 15 15C15 15.2458 15.586 16 16 16H17C17.414 16 18 15.2458 18 15C18 14.7542 17.414 15 17 15Z" fill="black"/>
</svg>
