<svg width="15" height="14" viewBox="0 0 15 14" fill="none" xmlns="http://www.w3.org/2000/svg">
<path d="M14 1C13.2235 0.183434 12.1584 0 11 0C10.1341 0 8.69809 0.476595 8 1C7.64775 1.2642 8.28141 1.62273 8 2C7.71871 1.62284 7.35236 1.2642 7 1C6.30203 0.476595 4.86586 0 4 0C2.84163 0 1.77648 0.183434 1 1C0.23279 1.80702 8.57897e-07 2.80494 8.57897e-07 4C8.57897e-07 5.23001 -0.014974 6.81249 1 8C1.90797 9.06223 3.48881 9.75135 5 11C5.51601 11.4264 6.39266 12.4851 7 13C7.16045 13.1363 7.78645 13 8 13C8.21343 13 7.83978 13.136 8 13C8.60734 12.485 9.48376 11.4266 10 11C11.511 9.75157 13.092 9.06235 14 8C15.015 6.8126 15 5.23012 15 4C15 2.80506 14.7673 1.80702 14 1Z" fill="#C4C4C4"/>
</svg>
