<svg width="30" height="20" viewBox="0 0 30 20" fill="none" xmlns="http://www.w3.org/2000/svg">
<path d="M25 15C24.2684 15 23.5243 14.4922 23 15C22.4757 15.5137 22 16.2832 22 17C22 17.7168 22.4696 18.4863 23 19C23.5304 19.5078 24.2684 20 25 20C26.4997 20 27 18.4815 27 17C27 15.5185 26.4997 15 25 15ZM25 19C24.1587 19 23 17.8124 23 17C23 16.1876 24.1587 16 25 16C25.8291 16 26 16.1756 26 17C26 17.8244 25.8291 19 25 19ZM25 6C24.8903 5.89845 25.1524 6 25 6H22C21.6647 6 21 5.67145 21 6V11C21 11.3286 21.6647 12 22 12H27C27.3353 12 27 11.3286 27 11V8C27 7.83274 27.128 7.1135 27 7L25 6ZM26 10H22V7H25L26 8V10ZM10 15C9.26844 15 8.52428 14.4922 8 15C7.47572 15.5137 7 16.2832 7 17C7 17.7168 7.46962 18.4863 8 19C8.53038 19.5078 9.26844 20 10 20C11.4997 20 12 18.4815 12 17C12 15.5185 11.4997 15 10 15ZM10 19C9.15871 19 8 17.8124 8 17C8 16.1876 9.15871 16 10 16C10.8291 16 11 16.1756 11 17C11 17.8244 10.8291 19 10 19ZM6 15H4V14C4 13.6714 4.3353 13 4 13C3.6647 13 3 13.6714 3 14V16C3 16.3286 3.6647 17 4 17H6C6.3353 17 6 16.3286 6 16C6 15.6714 6.3353 15 6 15ZM9 12C9 11.6714 8.3353 12 8 12H1C0.664703 12 0 11.6714 0 12C0 12.3286 0.664703 13 1 13H8C8.3353 13 9 12.3345 9 12ZM2 10H9C9.3353 10 9.9939 9.32855 10 9C10.0061 8.66547 9.3353 9 9 9H2C1.9939 9 2 9 2 9C1.6647 9 1 8.67145 1 9C0.993904 9.33453 1.6647 10 2 10ZM3 7H11C11.3353 7 11 7.32855 11 7C11 6.67145 11.3353 6 11 6H3C2.6647 6 2 6.67145 2 7C2 7.32855 2.6647 7 3 7ZM30 6L25 3C24.8903 2.91039 25.1463 3 25 3H20V1C20 0.671446 19.3353 0 19 0H4C3.6647 0 3 0.671446 3 1V5C3 5.32855 3.6647 6 4 6C4.3353 6 4 5.32855 4 5V1H19V15H14C13.6647 15 13 15.6714 13 16C13 16.3286 13.6647 17 14 17H21C21.3353 17 22 16.3286 22 16C22 15.6714 21.3353 15 21 15H20V4H25L29 7V15H28C27.6647 15 27 15.6714 27 16C27 16.3286 27.6647 17 28 17H29C29.3353 17 30 16.3286 30 16V7C29.9939 6.82079 30.1402 6.1135 30 6Z" fill="black"/>
</svg>
